Coordinates
version=1
nRows=11
nColumns=36
inDegrees=yes

Units are S.I. units (second, meters, Newtons, ...)
If the header above contains a line with 'inDegrees', this indicates whether rotational values are in degrees (yes) or radians (no).

endheader
time	pelvis_tilt	pelvis_list	pelvis_rotation	pelvis_tx	pelvis_ty	pelvis_tz	hip_flexion_r	hip_adduction_r	hip_rotation_r	knee_angle_r	knee_angle_r_beta	ankle_angle_r	subtalar_angle_r	mtp_angle_r	hip_flexion_l	hip_adduction_l	hip_rotation_l	knee_angle_l	knee_angle_l_beta	ankle_angle_l	subtalar_angle_l	mtp_angle_l	lumbar_extension	lumbar_bending	lumbar_rotation	arm_flex_r	arm_add_r	arm_rot_r	elbow_flex_r	pro_sup_r	arm_flex_l	arm_add_l	arm_rot_l	elbow_flex_l	pro_sup_l
      0.00000000	      8.94312008	     -1.16770600	     -3.41451081	      0.60317657	      1.04362633	      0.69246649	     22.16688000	      0.37779762	      2.18948696	     44.78408888	      0.78162980	      1.56636940	    -17.04548319	     -6.83927534	     -8.19730508	      2.08313609	     -0.64527591	     10.16787928	      0.17746297	     13.94991903	     -7.57871434	     -6.83927534	    -27.95541027	     -0.24597363	      2.81447946	      4.00229716	    -16.89882885	     -2.60642420	     37.17777772	     96.09714316	     19.09711863	    -14.41295485	     12.09442539	     30.98610382	     91.89288907
      0.01666670	      9.42737906	     -0.27095754	     -2.74168499	      0.60087668	      1.04282988	      0.69292726	     21.79399241	     -0.74556847	      1.38900546	     39.61296955	      0.69137675	      1.92790268	    -13.74178028	     -6.94221353	     -8.51249270	      3.07777273	      0.62804639	     11.64506754	      0.20324477	     13.73194227	     -9.66160319	     -6.94221353	    -28.69601383	     -1.43681232	      3.63562227	      3.02806056	    -17.02033694	     -3.31737219	     37.30174092	    102.06265592	     21.99140794	    -14.25025671	     16.10409994	     30.27191030	     98.35859729
      0.03333330	      8.97262080	      0.61307952	     -2.27799793	      0.59901638	      1.04204402	      0.69393475	     22.36432982	     -1.38635345	      2.25262968	     34.89003082	      0.60894591	      2.30831509	    -12.73593704	     -6.92876645	     -8.74778422	      3.92592866	      1.90062955	     11.42366476	      0.19938056	     14.01251882	     -9.49145267	     -6.92876645	    -28.56210204	     -2.29807763	      3.20478456	      2.56271389	    -16.70063336	     -2.87267667	     37.18745783	    102.51498487	     23.13495937	    -14.74942912	     18.20562702	     30.61166175	     99.06188950
      0.05000000	      8.32232067	      1.11363656	     -1.74315825	      0.59667532	      1.04190592	      0.69334386	     23.50868599	     -1.97892124	      2.26928953	     31.02879452	      0.54155463	      3.17959608	    -10.71008957	     -6.96915659	     -8.73423127	      4.24459923	      1.75658720	     11.44467027	      0.19974718	     15.05825960	     -8.17250370	     -6.96915659	    -28.22596623	     -2.64680262	      3.02986702	      1.66771589	    -16.29568358	     -4.28705607	     37.53468537	    103.28121423	     24.34993548	    -14.85596525	     20.21986253	     30.29155341	     99.72145684
      0.06666670	      7.36151874	      1.58393940	     -1.47413813	      0.59509407	      1.04241596	      0.69368128	     24.92571084	     -2.50519404	      2.34309125	     27.38592867	      0.47797462	      3.63204384	     -8.49070649	     -7.00016887	     -8.43602426	      4.60510942	      1.35025049	     11.73633763	      0.20483773	     16.43941084	     -7.11899273	     -7.00016887	    -27.44224701	     -2.94744260	      2.40477641	      1.55157371	    -15.88169007	     -4.75744751	     36.87112759	    102.93386958	     24.63912786	    -15.07728271	     20.68853424	     30.35712563	     99.00142592
      0.08333330	      6.25600075	      1.93469314	     -1.22136952	      0.59499541	      1.04170258	      0.69559998	     26.34639020	     -2.99467692	      2.06237948	     24.10790478	      0.42076231	      4.03762767	     -6.24604153	     -7.02137586	     -8.20794255	      4.82930038	      1.08473228	     11.85912863	      0.20698084	     17.93023466	     -5.92274715	     -7.02137586	    -26.33543059	     -3.10619564	      1.76737850	      1.40326579	    -15.36337063	     -5.21789441	     36.01441476	    102.10150902	     24.47264943	    -15.23713592	     20.16751639	     30.62601053	     97.81794937
      0.10000000	      5.34440244	      2.17281332	     -0.94418684	      0.59629994	      1.03961738	      0.69841968	     27.26593873	     -3.39359654	      1.60409696	     21.00237355	      0.36656057	      4.28600049	     -4.05822438	     -7.05364605	     -8.37326954	      4.91046224	      0.90849085	     11.84151752	      0.20667347	     19.44872913	     -4.68572278	     -7.05364605	    -25.31509371	     -3.12692655	      1.06285676	      1.27162000	    -14.87217841	     -5.45310061	     35.31453205	    100.83279220	     24.06650379	    -15.43018991	     19.45061628	     31.00824033	     96.27095260
      0.11666670	      4.64376030	      2.25431872	     -0.66331715	      0.59902500	      1.03684520	      0.70032587	     27.79745315	     -3.63647754	      1.05620869	     18.40887478	      0.32129548	      4.31446762	     -2.17433035	     -7.06658118	     -8.98086831	      4.78708808	      0.75656480	     11.59540952	      0.20237807	     20.80269941	     -3.44346502	     -7.06658118	    -24.40621050	     -2.94055608	      0.38582067	      1.16319920	    -14.43377934	     -5.87779885	     34.70748543	    100.85635912	     23.45501321	    -15.55177396	     18.09581262	     31.61094003	     96.11588936
      0.13333330	      4.24362507	      2.19310247	     -0.45431846	      0.60210261	      1.03410757	      0.70081337	     27.95106158	     -3.69270559	      0.58463674	     16.57274980	      0.28924905	      4.14327770	     -0.95236038	     -7.08575495	    -10.04663776	      4.49023209	      0.56642937	     11.19746334	      0.19543260	     21.88747280	     -2.41093504	     -7.08575495	    -23.63975181	     -2.67136693	      0.14289748	      0.83573358	    -14.07254157	     -6.57008288	     34.09614509	    100.26360472	     23.34697310	    -15.38242851	     17.68640563	     31.47489520	     95.69461696
      0.15000000	      3.86946800	      2.10401343	     -0.31128330	      0.60463888	      1.03089037	      0.70175869	     28.15889292	     -3.64425614	      0.27682254	     15.90824258	      0.27765121	      3.75927557	     -0.81423229	     -7.08932044	    -11.17283135	      4.18899576	      0.66393105	     10.70571073	      0.18684990	     22.60494231	     -2.36576677	     -7.08932044	    -22.81325249	     -2.45581672	      0.02253613	      0.33728746	    -13.95057799	     -6.63616938	     33.91766458	    100.06972078	     23.23443529	    -15.32058021	     17.63725505	     31.56472002	     95.54223864
      0.16666670	      4.07793234	      1.40741532	     -0.12397694	      0.60636987	      1.02939112	      0.70512399	     27.35775903	     -2.96173407	     -0.26294144	     15.78434723	      0.27548883	      2.70810573	     -1.43435004	     -7.10220803	    -12.92487783	      3.14512280	     -0.00593119	     10.14565583	      0.17707510	     23.14838178	     -1.20690200	     -7.10220803	    -22.50079337	     -1.48999348	      0.02780153	      0.47817861	    -13.84188827	     -7.41985203	     32.52490666	     98.34404148	     23.05579863	    -14.64713302	     16.33301438	     31.20194977	     93.84356621
